<svg width="18.000000" height="18.000000" viewBox="0 0 18 18" fill="none" xmlns="http://www.w3.org/2000/svg" xmlns:xlink="http://www.w3.org/1999/xlink">
	<desc>
			Created with Pixso.
	</desc>
	<defs>
		<clipPath id="clip12_5223">
			<rect width="18.000000" height="18.000000" fill="white" fill-opacity="0"/>
		</clipPath>
	</defs>
	<g clip-path="url(#clip12_5223)">
		<path d="M3.16 3.17C3.39 2.94 3.76 2.94 3.99 3.17L9 8.17L14 3.17C14.23 2.94 14.6 2.94 14.83 3.17C15.05 3.39 15.05 3.76 14.83 3.99L9.82 9L14.83 14C15.05 14.23 15.05 14.6 14.83 14.82C14.6 15.05 14.23 15.05 14 14.82L9 9.82L3.99 14.82C3.76 15.05 3.39 15.05 3.16 14.82C2.94 14.6 2.94 14.23 3.16 14L8.17 9L3.16 3.99C2.94 3.76 2.94 3.39 3.16 3.17Z" fill="#46A358" fill-opacity="1.000000" fill-rule="evenodd"/>
	</g>
</svg>
