<svg width="16.000000" height="16.000000" viewBox="0 0 16 16" fill="none" xmlns="http://www.w3.org/2000/svg" xmlns:xlink="http://www.w3.org/1999/xlink">
	<desc>
			Created with Pixso.
	</desc>
	<defs/>
	<rect id="Iconly/Light-Outline/Arrow - Right" width="16.000000" height="16.000000" fill="#FFFFFF" fill-opacity="0"/>
	<path id="Stroke 1" d="M2.66 7.81C2.66 7.56 2.85 7.35 3.09 7.32L3.16 7.31L13.16 7.31C13.44 7.31 13.66 7.54 13.66 7.81C13.66 8.07 13.47 8.27 13.23 8.31L13.16 8.31L3.16 8.31C2.89 8.31 2.66 8.09 2.66 7.81Z" fill="#3D3D3D" fill-opacity="1.000000" fill-rule="nonzero"/>
	<path id="Stroke 3" d="M8.78 4.15C8.58 3.96 8.58 3.64 8.77 3.44C8.95 3.27 9.23 3.25 9.43 3.39L9.48 3.44L13.51 7.46C13.69 7.64 13.71 7.91 13.56 8.11L13.51 8.17L9.48 12.18C9.29 12.38 8.97 12.38 8.77 12.18C8.6 12 8.58 11.73 8.73 11.53L8.78 11.47L12.45 7.81L8.78 4.15Z" fill="#3D3D3D" fill-opacity="1.000000" fill-rule="nonzero"/>
</svg>
